<?xml version="1.0" encoding="UTF-8" standalone="no"?>
<svg
   width="52.916668cm"
   height="52.916668cm"
   viewBox="52.5 0 2000 2000"
   version="1.1"
   id="svg979"
   sodipodi:docname="sapmachine.svg"
   inkscape:export-filename="/Users/I560383/Downloads/sapmachine.png"
   inkscape:export-xdpi="400"
   inkscape:export-ydpi="400"
   inkscape:version="1.1.2 (b8e25be8, 2022-02-05)"
   xmlns:inkscape="http://www.inkscape.org/namespaces/inkscape"
   xmlns:sodipodi="http://sodipodi.sourceforge.net/DTD/sodipodi-0.dtd"
   xmlns="http://www.w3.org/2000/svg"
   xmlns:svg="http://www.w3.org/2000/svg">
  <sodipodi:namedview
     id="namedview981"
     pagecolor="#ffffff"
     bordercolor="#666666"
     borderopacity="1.0"
     inkscape:pageshadow="2"
     inkscape:pageopacity="0.0"
     inkscape:pagecheckerboard="0"
     showgrid="false"
     units="cm"
     inkscape:zoom="0.81454783"
     inkscape:cx="360.32261"
     inkscape:cy="-220.9815"
     inkscape:window-width="1680"
     inkscape:window-height="997"
     inkscape:window-x="0"
     inkscape:window-y="25"
     inkscape:window-maximized="1"
     inkscape:current-layer="svg979"
     inkscape:document-units="cm" />
  <defs
     id="defs958">
    <style
       id="style900">
      .cls-1, .cls-10, .cls-11, .cls-12, .cls-13, .cls-14, .cls-15, .cls-16, .cls-17, .cls-18, .cls-2, .cls-3, .cls-4, .cls-5, .cls-6, .cls-7, .cls-8, .cls-9 {
        fill-rule: evenodd;
      }

      .cls-1 {
        fill: url(#linear-gradient);
      }

      .cls-2 {
        fill: #2c7491;
      }

      .cls-3 {
        fill: url(#linear-gradient-2);
      }

      .cls-4 {
        fill: url(#linear-gradient-3);
      }

      .cls-5 {
        fill: url(#linear-gradient-4);
      }

      .cls-6 {
        fill: url(#linear-gradient-5);
      }

      .cls-7 {
        fill: #ffe698;
      }

      .cls-8 {
        fill: url(#linear-gradient-6);
      }

      .cls-9 {
        fill: url(#linear-gradient-7);
      }

      .cls-10 {
        fill: #83dcf3;
      }

      .cls-11 {
        fill: #959595;
        opacity: 0.8;
      }

      .cls-13, .cls-18 {
        fill: #fff;
      }

      .cls-14 {
        fill: url(#linear-gradient-8);
      }

      .cls-15 {
        opacity: 0.73;
        fill: url(#linear-gradient-9);
      }

      .cls-16 {
        fill: url(#linear-gradient-10);
      }

      .cls-17 {
        fill: #08a4e4;
        opacity: 0.45;
      }

      .cls-18 {
        opacity: 0.5;
      }
    </style>
    <linearGradient
       id="linear-gradient"
       x1="117.969"
       y1="1949.5601"
       x2="2033.405"
       y2="34.125"
       gradientUnits="userSpaceOnUse">
      <stop
         offset="0"
         stop-color="#79dff2"
         stop-opacity="0.6"
         id="stop902" />
      <stop
         offset="0.5"
         stop-color="#d5edf2"
         stop-opacity="0.702"
         id="stop904" />
      <stop
         offset="1"
         stop-color="#79dff2"
         stop-opacity="0.6"
         id="stop906" />
    </linearGradient>
    <linearGradient
       id="linear-gradient-2"
       x1="547.93402"
       y1="1414.88"
       x2="486.754"
       y2="1067.91"
       gradientUnits="userSpaceOnUse">
      <stop
         offset="0"
         stop-color="#937266"
         id="stop909" />
      <stop
         offset="1"
         stop-color="#dbbcb0"
         id="stop911" />
    </linearGradient>
    <linearGradient
       id="linear-gradient-3"
       x1="486.59399"
       y1="1231.326"
       x2="1755.59"
       y2="1231.326"
       gradientUnits="userSpaceOnUse">
      <stop
         offset="0"
         stop-color="#ffa92f"
         id="stop914" />
      <stop
         offset="0.004"
         stop-color="#ffa92f"
         id="stop916" />
      <stop
         offset="1"
         stop-color="#ffcc2f"
         id="stop918" />
    </linearGradient>
    <linearGradient
       id="linear-gradient-4"
       x1="1065.561"
       y1="1376"
       x2="1065.561"
       y2="861.06201"
       gradientUnits="userSpaceOnUse">
      <stop
         offset="0"
         stop-color="#fddc76"
         id="stop921" />
      <stop
         offset="1"
         stop-color="#ffe699"
         id="stop923" />
    </linearGradient>
    <linearGradient
       id="linear-gradient-5"
       x1="486.59399"
       y1="1262.061"
       x2="1689.8101"
       y2="1262.061"
       gradientUnits="userSpaceOnUse">
      <stop
         offset="0"
         stop-color="#ff782f"
         id="stop926" />
      <stop
         offset="0.001"
         stop-color="#ff782f"
         id="stop928" />
      <stop
         offset="1"
         stop-color="#fb9c40"
         id="stop930" />
    </linearGradient>
    <linearGradient
       id="linear-gradient-6"
       x1="1190.613"
       y1="771.93799"
       x2="1518.267"
       y2="333.15601"
       gradientUnits="userSpaceOnUse">
      <stop
         offset="0"
         stop-color="#0f738d"
         id="stop933" />
      <stop
         offset="1"
         stop-color="#05647c"
         id="stop935" />
    </linearGradient>
    <linearGradient
       id="linear-gradient-7"
       x1="1491.825"
       y1="587.28101"
       x2="1362.895"
       y2="363.96899"
       gradientUnits="userSpaceOnUse">
      <stop
         offset="0"
         stop-color="#16a6cb"
         id="stop938" />
      <stop
         offset="1"
         stop-color="#70d6f0"
         id="stop940" />
    </linearGradient>
    <linearGradient
       id="linear-gradient-8"
       x1="1389.389"
       y1="1387.3101"
       x2="1410.301"
       y2="1294.97"
       gradientUnits="userSpaceOnUse">
      <stop
         offset="0"
         stop-color="#c5224c"
         id="stop943" />
      <stop
         offset="1"
         stop-color="#ff0042"
         id="stop945" />
    </linearGradient>
    <linearGradient
       id="linear-gradient-9"
       x1="1250.78"
       y1="1484.16"
       x2="1250.78"
       y2="1121.12"
       gradientUnits="userSpaceOnUse">
      <stop
         offset="0"
         stop-color="#377798"
         stop-opacity="0.631"
         id="stop948" />
      <stop
         offset="1"
         stop-color="#23b3fd"
         stop-opacity="0.6"
         id="stop950" />
    </linearGradient>
    <linearGradient
       id="linear-gradient-10"
       x1="1241.358"
       y1="1424.47"
       x2="1241.358"
       y2="1149.47"
       gradientUnits="userSpaceOnUse">
      <stop
         offset="0"
         stop-color="#b7d1da"
         id="stop953" />
      <stop
         offset="1"
         stop-color="#b7d1da"
         stop-opacity="0"
         id="stop955" />
    </linearGradient>
  </defs>
  <path
     id="Gradient_Fill_1"
     data-name="Gradient Fill 1"
     class="cls-1"
     d="m 1103.02,34.13 27.36,1.578 a 878.713,878.713 0 0 1 202.08,32.879 c 153.38,43.72 285.14,117.4 402.06,226.336 160.44,149.489 262.84,357.98 291.08,574.551 l 5.72,50.526 v 18.947 l 2.1,21.053 c 1.51,128.96 -14.43,242.51 -59.04,364.21 -95.55,260.65 -305.52,470.64 -566.14,566.2 -121.68,44.62 -235.22,60.56 -364.16,59.06 l -23.16,-2.02 c -85.411,-3.72 -169.387,-20.76 -250.49,-47.8 A 952.613,952.613 0 0 1 494.675,1753.93 C 419.553,1696.61 352.683,1628.52 297.703,1551.58 83.07,1251.22 58.809,857.142 234.3,532.632 353.344,312.509 555.28,149.921 793.585,75.842 840.494,61.26 894.342,49.107 943.04,42.7 l 61.04,-6.721 27.37,-1.845 h 71.57 z" />
  <path
     id="Color_Fill_2"
     data-name="Color Fill 2"
     class="cls-2"
     d="m 472,422.321 c 8.057,0.14 22.865,3.594 28.809,9.144 6.944,6.483 5.235,16.954 -3.67,20.952 -11.258,4.118 -29.566,-5.366 -48.294,0 -5.186,2.015 -20.091,8.8 -17.76,15.935 2.283,6.993 13.885,7.82 19.865,8.047 15.949,0.605 37.326,2.517 50.379,12.228 20.977,15.506 19.9,50 0,65.844 -19.658,15.57 -45.464,16.96 -69.324,16.679 -15.08,-0.177 -31.518,-4.37 -41.195,-16.923 -5.881,-7.629 -8.269,-23.612 1.506,-29.337 5.319,-3.115 12.791,-2.151 17.561,1.5 4.937,3.783 7.2,10.089 15.843,13.816 12.358,5.33 34.363,0.707 46.278,-4.58 5.409,-2.4 13.4,-6.274 14.09,-12.973 1.435,-13.951 -17.888,-14.126 -26.718,-15.01 -25.767,-2.578 -63.1,-3.052 -58.554,-39.647 a 38.085,38.085 0 0 1 4.942,-14.737 55.092,55.092 0 0 1 15.73,-17.349 c 9.415,-7.074 16.111,-10.114 27.357,-13.593 A 101.3,101.3 0 0 1 472,422.321 Z m 146.41,69.031 c 2.219,8.2 -4.11,25.55 -2.375,39.806 2.3,18.925 8.721,33.781 9.091,37.887 0.573,6.354 -1.438,12.034 -8.111,13.8 -7.957,2.108 -13.489,-3.286 -20.825,-3.42 -7.83,-0.144 -38.2,13.976 -58.723,-6.387 -13.551,-13.442 -13.051,-26.433 -12.839,-43.986 0.324,-26.86 18.309,-47.58 44.2,-53.756 14.359,-2.005 44.781,-1.676 49.582,16.056 z m 48.983,156.8 c -4.5,6.538 -17.926,6.538 -22.421,0 -2.969,-4.318 -2.464,-12.887 -2.472,-18.042 v -46.321 l -2.1,-31.579 v -37.894 c 0.091,-6.649 0.139,-13.161 5.107,-18.287 8.182,-8.442 20.583,-6.154 24.355,5.5 13.763,-6.852 34.719,-10.221 48.029,0 22.93,17.183 23.058,70.363 4.153,90.465 -14.6,15.519 -32.97,12.849 -52.182,12.849 0.003,8.457 1.512,37.514 -2.469,43.304 z m -79.625,-133.83 c -0.018,-3.053 0.177,-9.045 -1.2,-11.7 -4.436,-8.518 -18.445,-0.066 -22.944,4.392 -14.307,14.175 -17.911,56.716 11.52,51.65 6.047,-1.041 9.621,-3.392 14.735,-6.451 -3.063,-12.584 -2.035,-25.042 -2.111,-37.896 z m 82.1,44.209 c 0.067,9.873 -0.765,15.358 10.563,17.24 21.7,3.6 28.3,-13.664 26.075,-31.977 -1.236,-10.194 -0.8,-15.741 -11.47,-19.223 -24.936,0.364 -25.303,14.09 -25.17,33.955 z m -167.5,151.579 c -2.262,8.019 -5.145,27.933 -9.011,33.378 -5.863,8.259 -20.6,10.646 -21.318,-8.116 -0.786,-20.591 14.114,-62.366 18.9,-86.315 2.333,-11.662 5,-34.191 18.975,-37.194 11.5,-2.471 16.071,6.8 18.412,16.142 5.4,21.549 6.624,47.1 15.238,67.368 1.91,-12.36 6.774,-23.888 10.472,-35.789 l 5.369,-18.947 c 2.747,-10.986 5.258,-32.554 21.855,-28.774 10.679,2.432 12.95,17.6 14.352,26.668 l 9.891,58.948 9.259,37.894 c 1.732,19.5 -13.214,18.731 -19.206,11.971 -4.714,-5.317 -9.734,-29.024 -11.975,-37.234 l -8.442,-35.789 c -1.746,11.3 -13.175,45.6 -17.793,56.842 -2.738,6.664 -6.11,14.414 -13.863,16.142 -10.346,2.305 -14.484,-5.777 -17.289,-14.038 -4.929,-14.518 -9.8,-40.773 -16.31,-52.631 -1.152,12.784 -4.2,17.704 -7.519,29.469 z M 848.79,676 c 4.929,-1.543 11.682,-1.89 16.84,-1.6 25.929,1.482 25.222,30.906 25.26,50.434 l 2.022,27.368 c 0.364,9.866 -1.336,21.19 -14.563,18.248 -13.1,-2.914 -12.151,-24.57 -12.9,-35.09 l -1.135,-14.737 c 0.265,-5.52 2.789,-15.141 -2.659,-19.157 -5.824,-4.292 -14.636,4.59 -17.9,8.722 -5.533,7.008 -9.068,14.112 -9.608,23.067 -0.452,7.5 1.149,20.786 -2.562,27.062 -4.724,7.989 -16.38,8.135 -20.636,1.751 -2.589,-3.883 -2.143,-11.577 -2.152,-16.181 l 1.213,-86.316 c 0.845,-6.411 0.233,-22.5 3.044,-26.708 4.261,-6.378 15.38,-6.075 19.45,3.67 2.582,6.184 1.553,39.378 1.553,48.3 5.131,-4.079 8.289,-6.812 14.733,-8.833 z m 80.54,-44.345 c 4.722,4.756 5.018,17.062 -6.954,18.993 -14.771,2.384 -22.547,-12.008 -9.961,-21.1 5.536,-1.398 12.357,-2.481 16.915,2.11 z m 153.11,74.432 21.05,-6.028 c 5.31,-0.584 10.48,0.2 11.93,6.139 5.24,21.366 -27.75,25.109 -41.4,24.949 -14.76,-0.173 -29.3,-4.149 -38.2,-16.917 -13.35,-19.171 -6.57,-63.545 21.36,-75.232 14.92,-6.241 51.84,-4.709 54.45,18.474 0.46,4.1 0.04,8.887 -1.87,12.6 -6.45,12.583 -38.91,26.293 -52.58,29.5 v 4.21 c 8.32,1.518 16.78,3.555 25.26,2.308 z m -116.431,29.161 c -1.831,6.689 -7.431,9.281 -14.036,7.841 -11.4,-2.484 -10.545,-13.335 -10.47,-22.458 V 684.842 L 943.434,668 c 0.357,-8.135 -1.919,-20.034 8.614,-22.458 9.815,-2.259 12.856,3.913 14.622,11.932 8.224,-6.657 12.25,-9.868 23.155,-10.436 28.755,-1.5 29.435,17.43 29.465,39.909 l 2.11,33.684 c 0.03,8.055 1.72,20.116 -8.54,22.458 -17.156,3.918 -16.7,-17.954 -16.724,-28.773 v -25.263 c -0.11,-8.873 -0.572,-10.412 -2.1,-18.948 -32.874,19.052 -23.936,50.215 -28.027,65.143 z m 89.071,-56.722 c 11.24,-3.925 23.04,-8.323 31.57,-16.842 -16.68,-2.048 -25.45,-1.05 -31.57,16.842 z m -128.736,-6.195 v 67.248 c 0.265,9.676 -0.792,21.329 -14.285,18.247 -9.768,-2.231 -8.524,-12.58 -8.539,-20.352 v -52.632 c 0.017,-8.619 -1.241,-12.349 4.871,-18.9 7.485,-2.742 15.089,-2.883 17.953,6.389 z m -224.436,6.587 c 3.472,7.7 0.487,18.94 0,26.977 -1.29,16.982 7.069,36.529 7.394,42.1 0.343,5.864 -1.777,10.653 -7.983,11.868 -6.467,1.267 -11.561,-3.245 -18.824,-2.784 -7.733,0.491 -32.779,10.962 -50.075,-5.575 -18.042,-17.25 -19.085,-70.807 24.815,-84.488 12.856,-2.122 38.459,-2.416 44.673,11.902 z m 87.467,5.854 c 5.657,4.448 9.258,14.038 3.424,19.861 -7.884,7.869 -19.5,-3.033 -28.209,-2.712 -13.072,0.481 -27.5,23.461 -21.783,35.648 11.128,23.705 39.329,-1.053 50.592,6.275 11.225,7.3 -0.257,19.463 -7.768,23.475 a 46.425,46.425 0 0 1 -21.041,5.861 c -14.35,0.676 -28.668,-2.279 -38.885,-13.236 -22.341,-23.959 -4.331,-70.2 24.15,-82.156 12.909,-2.673 28.76,-1.477 39.52,6.984 z M 678.277,703.8 c -0.286,-16.932 -11.719,-16.264 -22.922,-7.231 -15.979,12.883 -12.169,42.415 10.3,39.283 4.557,-0.635 10.394,-3.024 14.735,-4.691 -2.898,-11.922 -1.915,-15.652 -2.113,-27.361 z" />
  <path
     id="propeller"
     class="cls-3"
     d="m 522.909,1281.24 c -70.7,154.4 -178.686,166.59 -135.969,79.61 27.437,-57.31 78.33,-96.47 82.63,-98.46 48.107,-17.58 9.913,-31.25 2.965,-34.99 -96.053,-31 -162.813,-171.77 -74.658,-129.01 55,26.2 83.377,44.97 106.436,83.6 24.716,45.98 26.541,9.77 35.689,-4.31 5.359,-21.03 54.224,-78.38 77.707,-91.55 92.9,-49.86 50.766,18.3 50.766,18.3 C 652,1128 596,1206 522.909,1281.24 Z" />
  <path
     id="body"
     class="cls-4"
     d="m 1517.7,898.947 c 206.82,95.263 238.92,326.313 237.87,385.263 4.21,349.47 -377.85,417.9 -569.4,409.47 -376.8,-29.47 -568.353,-135.79 -643.08,-314.73 -82.1,-75.79 -50.52,-117.9 -50.52,-117.9 0,0 32.914,2.49 40,-2.1 -4.019,-16.27 -2.679,-50.53 2.488,-62.97 1.913,-6.89 5.741,-10.91 13.395,-14.74 33.489,-13.01 95.682,-31.06 173.567,-40.19 13.288,-5 35,-22.23 37.89,-27.37 108.753,-149.47 280.15,-191.38 279.96,-191.575 2.3,-25.837 31.77,-47.464 31.57,-47.081 -0.19,-19.139 45.36,-110.239 159.98,-106.6 56.14,2.1 203.55,17.574 206.29,18.947 0.46,2.38 6.32,52.632 6.32,52.632 l 10.52,21.052 c 0,0 75.26,0.524 63.15,37.892 z" />
  <path
     id="top_lights"
     data-name="top lights"
     class="cls-5"
     d="m 1351.41,938.947 c 224.53,-13.333 263.12,74.383 267.33,101.053 2.11,33.68 -43.5,34.39 -59.64,12.63 -37.19,-61.051 -189.45,-101.051 -207.69,-113.683 z m 166.29,-40 c -22.36,-14.737 -150.5,-3.158 -227.34,-20.263 66.31,-6.053 164.19,-17.632 164.19,-17.632 0,0 75.26,0.527 63.15,37.895 z M 532.182,1259.11 c -1.854,1.61 -11.613,2.76 -19.911,2.67 C 525.987,1328.29 722,1334 756,1326 c 96,-18 128,50 128,50 0,0 -26,-80 -70,-80 -26,2 -288.516,1.22 -281.435,-37.05 -0.121,0.05 -0.248,0.11 -0.383,0.16 z" />
  <path
     id="bottom_lights"
     data-name="bottom lights"
     class="cls-6"
     d="m 1039.87,922.105 c 3.11,-26.636 31.84,-47.105 31.77,-47.081 34.01,-21.077 114,-41.866 141.54,-44.849 135.07,-2.807 230.85,10.088 230.85,10.088 0,0 10.66,20.921 10.52,20.921 -0.14,0 -380.47,40.395 -380.47,40.395 0,0 -31.46,1.945 -34.21,20.526 z M 912,1430 c 11.577,13.68 22.473,34.68 18,46 -94.725,8.42 -278.5,-28.63 -386.91,-97.05 -82.1,-75.79 -50.52,-117.9 -50.52,-117.9 34.206,147.37 305.76,161.58 419.43,168.95 z m 777.8,74.56 c -117.01,159.68 -362.23,195.34 -503.63,189.12 -376.8,-29.47 -568.353,-135.79 -643.08,-314.73 324.17,205.26 729.38,330.52 1146.71,125.61 z" />
  <path
     id="roof_light"
     data-name="roof light"
     class="cls-7"
     d="m 1213.01,830.526 c 8.15,-27.368 7.36,-23.684 18.41,-62.1 56.14,2.1 203.55,17.574 206.29,18.947 0.46,2.38 6.32,52.632 6.32,52.632 0,0 -148.93,-14.742 -231.02,-9.479 z" />
  <path
     id="rescope"
     class="cls-8"
     d="M 1192.83,771.93 C 1239.67,700.351 1080,520 1310,388 c 62,-36 142,-64 170,-52 84,40 71.26,364.268 -170,260 -76,-40 -48.12,138.005 -40.69,175.93 -5.78,-4.737 -65.69,-5 -76.48,0 z" />
  <path
     id="recope_glass"
     data-name="recope glass"
     class="cls-9"
     d="m 1464,366 c -116,-28 -144,242 -52,220 102,-14 104,-206 52,-220 z" />
  <path
     id="rescope_glass_light"
     data-name="rescope glass light"
     class="cls-10"
     d="m 1454.98,382.316 c 43.68,53.158 30.91,115.789 13.02,143.684 -26.84,34.737 -33.58,25.474 -22,6 18.42,-35.263 49.5,-46.526 8.98,-149.684 z" />
  <path
     id="window_background"
     data-name="window background"
     class="cls-11"
     d="m 834.7,1162.11 c 9.218,23.69 7.328,73.97 -22.174,82.83 -17.722,5.33 -30.45,-11.25 -35.575,-25.99 -9.075,-26.11 -5.844,-68.66 22.945,-80.73 18.098,-3.3 28.614,7.96 34.804,23.89 z m 156.206,12.63 c 22.05,45.27 11.42,131.76 -45.765,144.17 -33.012,7.17 -56.475,-17.68 -68.81,-45.23 -20.846,-46.55 -7.5,-124.74 47.76,-139.96 32.262,-5.11 53.333,13.33 66.819,41.02 z m 223.91,16.84 c 22.85,48.62 22.91,115.21 -4.48,162.1 -16.96,29.03 -44.79,51.87 -79.96,50.45 -42.06,-1.7 -70.71,-36.82 -84.08,-73.6 -25.04,-68.89 -7.28,-178.5 75.66,-196.92 41.994,-5.81 75.664,21.37 92.864,57.97 z m 158.34,-68.77 c 53.68,-4.21 251.55,0 282.07,6.31 47.53,11.69 78.54,57.63 73.29,100.1 -51.57,362.1 -392.29,308.13 -440.52,27.94 -2.286,-21.05 -21.426,-122.87 85.164,-134.35 z" />
  <path
     id="duke_top"
     data-name="duke top"
     class="cls-12"
     d="m 1443.26,1182.78 c -81.52,43.25 -122.09,155.78 -122.85,171.86 69.27,-23.35 155,-4.21 171.08,8.42 5.74,4.21 8.04,20.29 8.8,24.12 8.42,0 13.01,-20.29 13.01,-20.29 0,0 32.32,-38.56 34.45,-39.43 6.01,1.6 23.77,0.87 26.41,0 17.22,11.3 25.26,-6.12 15.31,-8.42 16.45,-0.76 9.56,-17.8 3.44,-20.28 9.38,-7.66 4.78,-12.64 -1.15,-15.32 0,0 -21.62,0.2 -22,-2.29 0.38,-20.86 7.84,-35.98 -23.54,-27.56 0,0 7.46,33.68 6.12,35.41 -7.46,0.57 -11.48,23.92 -9.76,35.59 0,0 -29.09,36.37 -31.19,37.52 -1.34,-5.75 -12.82,-5.56 -20.48,-5.17 1.53,-7.85 -40.37,-166.89 -47.65,-174.16 z" />
  <path
     id="duke_bottom"
     data-name="duke bottom"
     class="cls-13"
     d="m 1331,1373 c -3.79,-6.04 -7.28,-12.09 -10.59,-18.36 69.27,-23.35 155,-4.21 171.08,8.42 4.43,3.49 6.12,13.94 8.8,24.12 14.01,53.22 16.27,85.44 5.71,92.82 -5.15,3.6 -11.45,3.09 -22,1 -20.29,-4.03 -42.38,-10.74 -51,-15 -24.4,-12.06 -44.1,-26.08 -60,-41 -14.56,-13.67 -28.51,-30.51 -42,-52 z m -10,-18" />
  <path
     id="duke_nose"
     data-name="duke nose"
     class="cls-14"
     d="m 1441.24,1311.77 c 21.43,24 12.37,66.81 -30.89,74.62 -16.18,2.92 -35.81,-1.24 -48.22,-12.34 a 44.2,44.2 0 0 1 1.99,-67.67 c 8.06,-6.45 15.39,-8.49 25.18,-10.67 18.76,-2.59 38.82,1.38 51.94,16.06 z" />
  <path
     id="duke_nose_light"
     data-name="duke nose light"
     class="cls-13"
     d="m 1400.29,1332.63 c -11.67,4.22 -24.21,-10 -10.79,-19.21 16.31,-4.21 22.35,15.03 10.79,19.21 z" />
  <path
     id="window_glass"
     data-name="window glass"
     class="cls-15"
     d="m 834.7,1162.11 c 9.218,23.69 7.328,73.97 -22.174,82.83 -17.722,5.33 -30.45,-11.25 -35.575,-25.99 -9.075,-26.11 -5.844,-68.66 22.945,-80.73 18.098,-3.3 28.614,7.96 34.804,23.89 z m 156.206,12.63 c 22.05,45.27 11.42,131.76 -45.765,144.17 -33.012,7.17 -56.475,-17.68 -68.81,-45.23 -20.846,-46.55 -7.5,-124.74 47.76,-139.96 32.262,-5.11 53.333,13.33 66.819,41.02 z m 223.91,16.84 c 22.85,48.62 22.91,115.21 -4.48,162.1 -16.96,29.03 -44.79,51.87 -79.96,50.45 -42.06,-1.7 -70.71,-36.82 -84.08,-73.6 -25.04,-68.89 -7.28,-178.5 75.66,-196.92 41.994,-5.81 75.664,21.37 92.864,57.97 z m 158.34,-68.77 c 53.68,-4.21 251.55,0 282.07,6.31 47.53,11.69 78.54,57.63 73.29,100.1 -51.57,362.1 -392.29,308.13 -440.52,27.94 -2.286,-21.05 -21.426,-122.87 85.164,-134.35 z" />
  <path
     id="window_glass_lights"
     data-name="window glass lights"
     class="cls-16"
     d="m 792.883,1149.47 c -14.033,26.67 -14.735,55.44 -4.911,73.69 6.315,13.33 15.436,0 6.315,-14.04 -13.332,-20.35 -5.614,-32.28 -1.404,-59.65 z m 108.057,9.13 c -35.785,33.68 -22.453,109.47 -4.912,125.61 18.244,15.44 16.84,-0.7 8.42,-12.63 -24.558,-36.49 -16.84,-87.72 -3.508,-112.98 z m 175.42,23.86 c 0,0 -65.26,73.68 2.8,181.75 16.84,25.97 28.07,-16.84 14.04,-32.28 -65.96,-65.97 -16.84,-149.47 -16.84,-149.47 z m 592.9,-28.78 c 0,0 95.43,81.41 -42.8,262.46 -20.35,22.46 -35.78,-4.91 -12.63,-30.18 106.66,-129.12 68.77,-214.03 55.43,-232.28 z" />
  <path
     id="bubbles"
     class="cls-17"
     d="m 1670,814 c 12.27,5.271 19.12,16 22,25 a 40.182,40.182 0 0 1 -1,28 39.527,39.527 0 0 1 -29,23 c -16.36,3.05 -34.62,-4.607 -43,-21 a 39.964,39.964 0 0 1 51,-55 z m 11,-40 a 13.017,13.017 0 1 0 -16,-5 13.213,13.213 0 0 0 16,5 z m -81,-53 c 9.21,-1.62 17.72,5.272 19,14 a 16.307,16.307 0 1 1 -19,-14 z M 507,1014 a 39.776,39.776 0 0 1 36,13 40.282,40.282 0 0 1 9,35 39.065,39.065 0 0 1 -35,31 c -10.149,0.9 -21.587,-2.1 -30,-10 -15.284,-14.35 -15.764,-40.58 -3,-56 a 37.972,37.972 0 0 1 23,-13 z m -27,-37 c -7.839,1.979 -16.26,-5.01 -16,-13 a 12.775,12.775 0 0 1 25,-3 13.038,13.038 0 0 1 -9,16 z m 68,-23 c -9.335,0.276 -17,-7.8 -17,-17 0,-9.2 7.665,-17.276 17,-17 9,0.266 16,8.193 16,17 0,8.807 -7,16.734 -16,17 z m -76,-81 c 1.455,-5.475 8.655,-8.84 14,-6 a 9.779,9.779 0 0 1 4,13 c -2.769,5.006 -9.657,5.913 -14,3 a 9.518,9.518 0 0 1 -4,-10 z" />
  <path
     id="bubbles_light"
     data-name="bubbles light"
     class="cls-18"
     d="m 529,1028 a 6.615,6.615 0 0 1 1,8 c -2.241,3.64 -8.323,4.19 -11,1 a 6.634,6.634 0 0 1 0,-8 c 2.3,-3.04 7.216,-3.66 10,-1 z m -49,-71 a 2,2 0 1 1 -2,2 2.01,2.01 0 0 1 2,-2 z m 5,-87 a 2.236,2.236 0 1 1 -3,1 2.247,2.247 0 0 1 3,-1 z m 70,58 a 3.583,3.583 0 0 1 1,4 3.69,3.69 0 0 1 -3,2 3.823,3.823 0 0 1 -4,-2 3.6,3.6 0 0 1 1,-4 3.828,3.828 0 0 1 5,0 z M 1670,828 a 7.709,7.709 0 0 1 6,5 8.27,8.27 0 0 1 -1,7 c -0.72,1.158 -2.76,3.823 -6,4 a 7.767,7.767 0 0 1 -7,-4 8.067,8.067 0 0 1 0,-8 7.945,7.945 0 0 1 8,-4 z m 12,-72 a 2.736,2.736 0 0 1 -1,3 2.652,2.652 0 0 1 -3,0 2.761,2.761 0 0 1 -1,-3 2.7,2.7 0 0 1 2,-2 2.769,2.769 0 0 1 3,2 z m -75,-30 a 4.016,4.016 0 0 1 4,3 3.916,3.916 0 0 1 -2,4 4.039,4.039 0 0 1 -4,0 3.916,3.916 0 0 1 -2,-4 4.007,4.007 0 0 1 4,-3 z" />
</svg>
