<svg xmlns="http://www.w3.org/2000/svg" xmlns:xlink="http://www.w3.org/1999/xlink" width="2000" height="2000" viewBox="52.5 0 2000 2000">
  <defs>
    <style>
      .cls-1, .cls-10, .cls-11, .cls-12, .cls-13, .cls-14, .cls-15, .cls-16, .cls-17, .cls-18, .cls-2, .cls-3, .cls-4, .cls-5, .cls-6, .cls-7, .cls-8, .cls-9 {
        fill-rule: evenodd;
      }

      .cls-1 {
        fill: url(#linear-gradient);
      }

      .cls-2 {
        fill: #2c7491;
      }

      .cls-3 {
        fill: url(#linear-gradient-2);
      }

      .cls-4 {
        fill: url(#linear-gradient-3);
      }

      .cls-5 {
        fill: url(#linear-gradient-4);
      }

      .cls-6 {
        fill: url(#linear-gradient-5);
      }

      .cls-7 {
        fill: #ffe698;
      }

      .cls-8 {
        fill: url(#linear-gradient-6);
      }

      .cls-9 {
        fill: url(#linear-gradient-7);
      }

      .cls-10 {
        fill: #83dcf3;
      }

      .cls-11 {
        fill: #959595;
        opacity: 0.8;
      }

      .cls-13, .cls-18 {
        fill: #fff;
      }

      .cls-14 {
        fill: url(#linear-gradient-8);
      }

      .cls-15 {
        opacity: 0.73;
        fill: url(#linear-gradient-9);
      }

      .cls-16 {
        fill: url(#linear-gradient-10);
      }

      .cls-17 {
        fill: #08a4e4;
        opacity: 0.45;
      }

      .cls-18 {
        opacity: 0.5;
      }
    </style>
    <linearGradient id="linear-gradient" x1="117.969" y1="1949.56" x2="2033.405" y2="34.125" gradientUnits="userSpaceOnUse">
      <stop offset="0" stop-color="#79dff2" stop-opacity="0.6"/>
      <stop offset="0.5" stop-color="#d5edf2" stop-opacity="0.702"/>
      <stop offset="1" stop-color="#79dff2" stop-opacity="0.6"/>
    </linearGradient>
    <linearGradient id="linear-gradient-2" x1="547.934" y1="1414.88" x2="486.754" y2="1067.91" gradientUnits="userSpaceOnUse">
      <stop offset="0" stop-color="#937266"/>
      <stop offset="1" stop-color="#dbbcb0"/>
    </linearGradient>
    <linearGradient id="linear-gradient-3" x1="486.594" y1="1231.326" x2="1755.59" y2="1231.326" gradientUnits="userSpaceOnUse">
      <stop offset="0" stop-color="#ffa92f"/>
      <stop offset="0.004" stop-color="#ffa92f"/>
      <stop offset="1" stop-color="#ffcc2f"/>
    </linearGradient>
    <linearGradient id="linear-gradient-4" x1="1065.561" y1="1376" x2="1065.561" y2="861.062" gradientUnits="userSpaceOnUse">
      <stop offset="0" stop-color="#fddc76"/>
      <stop offset="1" stop-color="#ffe699"/>
    </linearGradient>
    <linearGradient id="linear-gradient-5" x1="486.594" y1="1262.061" x2="1689.81" y2="1262.061" gradientUnits="userSpaceOnUse">
      <stop offset="0" stop-color="#ff782f"/>
      <stop offset="0.001" stop-color="#ff782f"/>
      <stop offset="1" stop-color="#fb9c40"/>
    </linearGradient>
    <linearGradient id="linear-gradient-6" x1="1190.613" y1="771.938" x2="1518.267" y2="333.156" gradientUnits="userSpaceOnUse">
      <stop offset="0" stop-color="#0f738d"/>
      <stop offset="1" stop-color="#05647c"/>
    </linearGradient>
    <linearGradient id="linear-gradient-7" x1="1491.825" y1="587.281" x2="1362.895" y2="363.969" gradientUnits="userSpaceOnUse">
      <stop offset="0" stop-color="#16a6cb"/>
      <stop offset="1" stop-color="#70d6f0"/>
    </linearGradient>
    <linearGradient id="linear-gradient-8" x1="1389.389" y1="1387.31" x2="1410.301" y2="1294.97" gradientUnits="userSpaceOnUse">
      <stop offset="0" stop-color="#c5224c"/>
      <stop offset="1" stop-color="#ff0042"/>
    </linearGradient>
    <linearGradient id="linear-gradient-9" x1="1250.78" y1="1484.16" x2="1250.78" y2="1121.12" gradientUnits="userSpaceOnUse">
      <stop offset="0" stop-color="#377798" stop-opacity="0.631"/>
      <stop offset="1" stop-color="#23b3fd" stop-opacity="0.6"/>
    </linearGradient>
    <linearGradient id="linear-gradient-10" x1="1241.358" y1="1424.47" x2="1241.358" y2="1149.47" gradientUnits="userSpaceOnUse">
      <stop offset="0" stop-color="#b7d1da"/>
      <stop offset="1" stop-color="#b7d1da" stop-opacity="0"/>
    </linearGradient>
  </defs>
  <path id="Gradient_Fill_1" data-name="Gradient Fill 1" class="cls-1" d="M1103.02,34.13l27.36,1.578a878.713,878.713,0,0,1,202.08,32.879c153.38,43.72,285.14,117.4,402.06,226.336,160.44,149.489,262.84,357.98,291.08,574.551L2031.32,920v18.947l2.1,21.053c1.51,128.96-14.43,242.51-59.04,364.21-95.55,260.65-305.52,470.64-566.14,566.2-121.68,44.62-235.22,60.56-364.16,59.06l-23.16-2.02c-85.411-3.72-169.387-20.76-250.49-47.8a952.613,952.613,0,0,1-275.755-145.72c-75.122-57.32-141.992-125.41-196.972-202.35C83.07,1251.22,58.809,857.142,234.3,532.632,353.344,312.509,555.28,149.921,793.585,75.842,840.494,61.26,894.342,49.107,943.04,42.7l61.04-6.721,27.37-1.845h71.57Z"/>
  <path id="Color_Fill_2" data-name="Color Fill 2" class="cls-2" d="M472,422.321c8.057,0.14,22.865,3.594,28.809,9.144,6.944,6.483,5.235,16.954-3.67,20.952-11.258,4.118-29.566-5.366-48.294,0-5.186,2.015-20.091,8.8-17.76,15.935,2.283,6.993,13.885,7.82,19.865,8.047,15.949,0.605,37.326,2.517,50.379,12.228,20.977,15.506,19.9,50,0,65.844-19.658,15.57-45.464,16.96-69.324,16.679-15.08-.177-31.518-4.37-41.195-16.923-5.881-7.629-8.269-23.612,1.506-29.337,5.319-3.115,12.791-2.151,17.561,1.5,4.937,3.783,7.2,10.089,15.843,13.816,12.358,5.33,34.363.707,46.278-4.58,5.409-2.4,13.4-6.274,14.09-12.973,1.435-13.951-17.888-14.126-26.718-15.01-25.767-2.578-63.1-3.052-58.554-39.647a38.085,38.085,0,0,1,4.942-14.737,55.092,55.092,0,0,1,15.73-17.349c9.415-7.074,16.111-10.114,27.357-13.593A101.3,101.3,0,0,1,472,422.321ZM618.41,491.352c2.219,8.2-4.11,25.55-2.375,39.806,2.3,18.925,8.721,33.781,9.091,37.887,0.573,6.354-1.438,12.034-8.111,13.8-7.957,2.108-13.489-3.286-20.825-3.42-7.83-.144-38.2,13.976-58.723-6.387-13.551-13.442-13.051-26.433-12.839-43.986,0.324-26.86,18.309-47.58,44.2-53.756C583.187,473.291,613.609,473.62,618.41,491.352Zm48.983,156.8c-4.5,6.538-17.926,6.538-22.421,0-2.969-4.318-2.464-12.887-2.472-18.042V583.789l-2.1-31.579V514.316c0.091-6.649.139-13.161,5.107-18.287,8.182-8.442,20.583-6.154,24.355,5.5,13.763-6.852,34.719-10.221,48.029,0,22.93,17.183,23.058,70.363,4.153,90.465-14.6,15.519-32.97,12.849-52.182,12.849C669.865,613.3,671.374,642.357,667.393,648.147Zm-79.625-133.83c-0.018-3.053.177-9.045-1.2-11.7-4.436-8.518-18.445-.066-22.944,4.392-14.307,14.175-17.911,56.716,11.52,51.65,6.047-1.041,9.621-3.392,14.735-6.451C586.816,539.629,587.844,527.171,587.768,514.317Zm82.1,44.209c0.067,9.873-.765,15.358,10.563,17.24,21.7,3.6,28.3-13.664,26.075-31.977-1.236-10.194-.8-15.741-11.47-19.223C670.1,524.935,669.733,538.661,669.866,558.526Zm-167.5,151.579c-2.262,8.019-5.145,27.933-9.011,33.378-5.863,8.259-20.6,10.646-21.318-8.116-0.786-20.591,14.114-62.366,18.9-86.315,2.333-11.662,5-34.191,18.975-37.194,11.5-2.471,16.071,6.8,18.412,16.142,5.4,21.549,6.624,47.1,15.238,67.368,1.91-12.36,6.774-23.888,10.472-35.789l5.369-18.947c2.747-10.986,5.258-32.554,21.855-28.774,10.679,2.432,12.95,17.6,14.352,26.668l9.891,58.948,9.259,37.894c1.732,19.5-13.214,18.731-19.206,11.971-4.714-5.317-9.734-29.024-11.975-37.234l-8.442-35.789c-1.746,11.3-13.175,45.6-17.793,56.842-2.738,6.664-6.11,14.414-13.863,16.142-10.346,2.305-14.484-5.777-17.289-14.038-4.929-14.518-9.8-40.773-16.31-52.631C508.732,693.42,505.684,698.34,502.365,710.105ZM848.79,676c4.929-1.543,11.682-1.89,16.84-1.6,25.929,1.482,25.222,30.906,25.26,50.434l2.022,27.368c0.364,9.866-1.336,21.19-14.563,18.248-13.1-2.914-12.151-24.57-12.9-35.09l-1.135-14.737c0.265-5.52,2.789-15.141-2.659-19.157-5.824-4.292-14.636,4.59-17.9,8.722-5.533,7.008-9.068,14.112-9.608,23.067-0.452,7.5,1.149,20.786-2.562,27.062-4.724,7.989-16.38,8.135-20.636,1.751-2.589-3.883-2.143-11.577-2.152-16.181l1.213-86.316c0.845-6.411.233-22.5,3.044-26.708,4.261-6.378,15.38-6.075,19.45,3.67,2.582,6.184,1.553,39.378,1.553,48.3C839.188,680.754,842.346,678.021,848.79,676Zm80.54-44.345c4.722,4.756,5.018,17.062-6.954,18.993-14.771,2.384-22.547-12.008-9.961-21.1C917.951,628.15,924.772,627.067,929.33,631.658Zm153.11,74.432,21.05-6.028c5.31-.584,10.48.2,11.93,6.139,5.24,21.366-27.75,25.109-41.4,24.949-14.76-.173-29.3-4.149-38.2-16.917-13.35-19.171-6.57-63.545,21.36-75.232,14.92-6.241,51.84-4.709,54.45,18.474,0.46,4.1.04,8.887-1.87,12.6-6.45,12.583-38.91,26.293-52.58,29.5v4.21C1065.5,705.3,1073.96,707.337,1082.44,706.09ZM966.009,735.248c-1.831,6.689-7.431,9.281-14.036,7.841-11.4-2.484-10.545-13.335-10.47-22.458V684.842L943.434,668c0.357-8.135-1.919-20.034,8.614-22.458,9.815-2.259,12.856,3.913,14.622,11.932,8.224-6.657,12.25-9.868,23.155-10.436,28.755-1.5,29.435,17.43,29.465,39.909l2.11,33.684c0.03,8.055,1.72,20.116-8.54,22.458-17.156,3.918-16.7-17.954-16.724-28.773V689.053c-0.11-8.873-.572-10.412-2.1-18.948C961.162,689.157,970.1,720.32,966.009,735.248Zm89.071-56.722c11.24-3.925,23.04-8.323,31.57-16.842C1069.97,659.636,1061.2,660.634,1055.08,678.526Zm-128.736-6.195v67.248c0.265,9.676-.792,21.329-14.285,18.247-9.768-2.231-8.524-12.58-8.539-20.352V684.842c0.017-8.619-1.241-12.349,4.871-18.9C915.876,663.2,923.48,663.059,926.344,672.331Zm-224.436,6.587c3.472,7.7.487,18.94,0,26.977-1.29,16.982,7.069,36.529,7.394,42.1,0.343,5.864-1.777,10.653-7.983,11.868-6.467,1.267-11.561-3.245-18.824-2.784-7.733.491-32.779,10.962-50.075-5.575-18.042-17.25-19.085-70.807,24.815-84.488C670.091,664.894,695.694,664.6,701.908,678.918Zm87.467,5.854c5.657,4.448,9.258,14.038,3.424,19.861-7.884,7.869-19.5-3.033-28.209-2.712-13.072.481-27.5,23.461-21.783,35.648,11.128,23.705,39.329-1.053,50.592,6.275,11.225,7.3-.257,19.463-7.768,23.475a46.425,46.425,0,0,1-21.041,5.861c-14.35.676-28.668-2.279-38.885-13.236-22.341-23.959-4.331-70.2,24.15-82.156C762.764,675.115,778.615,676.311,789.375,684.772ZM678.277,703.8c-0.286-16.932-11.719-16.264-22.922-7.231-15.979,12.883-12.169,42.415,10.3,39.283,4.557-.635,10.394-3.024,14.735-4.691C677.492,719.239,678.475,715.509,678.277,703.8Z"/>
  <path id="propeller" class="cls-3" d="M522.909,1281.24c-70.7,154.4-178.686,166.59-135.969,79.61,27.437-57.31,78.33-96.47,82.63-98.46,48.107-17.58,9.913-31.25,2.965-34.99-96.053-31-162.813-171.77-74.658-129.01,55,26.2,83.377,44.97,106.436,83.6,24.716,45.98,26.541,9.77,35.689-4.31,5.359-21.03,54.224-78.38,77.707-91.55,92.9-49.86,50.766,18.3,50.766,18.3C652,1128,596,1206,522.909,1281.24Z"/>
  <path id="body" class="cls-4" d="M1517.7,898.947c206.82,95.263,238.92,326.313,237.87,385.263,4.21,349.47-377.85,417.9-569.4,409.47-376.8-29.47-568.353-135.79-643.08-314.73-82.1-75.79-50.52-117.9-50.52-117.9s32.914,2.49,40-2.1c-4.019-16.27-2.679-50.53,2.488-62.97,1.913-6.89,5.741-10.91,13.395-14.74,33.489-13.01,95.682-31.06,173.567-40.19,13.288-5,35-22.23,37.89-27.37C868.663,964.21,1040.06,922.3,1039.87,922.105c2.3-25.837,31.77-47.464,31.57-47.081-0.19-19.139,45.36-110.239,159.98-106.6,56.14,2.1,203.55,17.574,206.29,18.947,0.46,2.38,6.32,52.632,6.32,52.632l10.52,21.052S1529.81,861.579,1517.7,898.947Z"/>
  <path id="top_lights" data-name="top lights" class="cls-5" d="M1351.41,938.947c224.53-13.333,263.12,74.383,267.33,101.053,2.11,33.68-43.5,34.39-59.64,12.63C1521.91,991.579,1369.65,951.579,1351.41,938.947Zm166.29-40c-22.36-14.737-150.5-3.158-227.34-20.263,66.31-6.053,164.19-17.632,164.19-17.632S1529.81,861.579,1517.7,898.947ZM532.182,1259.11c-1.854,1.61-11.613,2.76-19.911,2.67C525.987,1328.29,722,1334,756,1326c96-18,128,50,128,50s-26-80-70-80c-26,2-288.516,1.22-281.435-37.05C532.444,1259,532.317,1259.06,532.182,1259.11Z"/>
  <path id="bottom_lights" data-name="bottom lights" class="cls-6" d="M1039.87,922.105c3.11-26.636,31.84-47.105,31.77-47.081,34.01-21.077,114-41.866,141.54-44.849,135.07-2.807,230.85,10.088,230.85,10.088s10.66,20.921,10.52,20.921-380.47,40.395-380.47,40.395S1042.62,903.524,1039.87,922.105ZM912,1430c11.577,13.68,22.473,34.68,18,46-94.725,8.42-278.5-28.63-386.91-97.05-82.1-75.79-50.52-117.9-50.52-117.9C526.776,1408.42,798.33,1422.63,912,1430Zm777.8,74.56c-117.01,159.68-362.23,195.34-503.63,189.12-376.8-29.47-568.353-135.79-643.08-314.73C867.26,1584.21,1272.47,1709.47,1689.8,1504.56Z"/>
  <path id="roof_light" data-name="roof light" class="cls-7" d="M1213.01,830.526c8.15-27.368,7.36-23.684,18.41-62.1,56.14,2.1,203.55,17.574,206.29,18.947,0.46,2.38,6.32,52.632,6.32,52.632S1295.1,825.263,1213.01,830.526Z"/>
  <path id="rescope" class="cls-8" d="M1192.83,771.93C1239.67,700.351,1080,520,1310,388c62-36,142-64,170-52,84,40,71.26,364.268-170,260-76-40-48.12,138.005-40.69,175.93C1263.53,767.193,1203.62,766.93,1192.83,771.93Z"/>
  <path id="recope_glass" data-name="recope glass" class="cls-9" d="M1464,366c-116-28-144,242-52,220C1514,572,1516,380,1464,366Z"/>
  <path id="rescope_glass_light" data-name="rescope glass light" class="cls-10" d="M1454.98,382.316C1498.66,435.474,1485.89,498.105,1468,526c-26.84,34.737-33.58,25.474-22,6C1464.42,496.737,1495.5,485.474,1454.98,382.316Z"/>
  <path id="window_background" data-name="window background" class="cls-11" d="M834.7,1162.11c9.218,23.69,7.328,73.97-22.174,82.83-17.722,5.33-30.45-11.25-35.575-25.99-9.075-26.11-5.844-68.66,22.945-80.73C817.994,1134.92,828.51,1146.18,834.7,1162.11Zm156.206,12.63c22.05,45.27,11.42,131.76-45.765,144.17-33.012,7.17-56.475-17.68-68.81-45.23-20.846-46.55-7.5-124.74,47.76-139.96C956.353,1128.61,977.424,1147.05,990.91,1174.74Zm223.91,16.84c22.85,48.62,22.91,115.21-4.48,162.1-16.96,29.03-44.79,51.87-79.96,50.45-42.06-1.7-70.71-36.82-84.08-73.6-25.04-68.89-7.28-178.5,75.66-196.92C1163.95,1127.8,1197.62,1154.98,1214.82,1191.58Zm158.34-68.77c53.68-4.21,251.55,0,282.07,6.31,47.53,11.69,78.54,57.63,73.29,100.1-51.57,362.1-392.29,308.13-440.52,27.94C1285.71,1236.11,1266.57,1134.29,1373.16,1122.81Z"/>
  <path id="duke_top" data-name="duke top" class="cls-12" d="M1443.26,1182.78c-81.52,43.25-122.09,155.78-122.85,171.86,69.27-23.35,155-4.21,171.08,8.42,5.74,4.21,8.04,20.29,8.8,24.12,8.42,0,13.01-20.29,13.01-20.29s32.32-38.56,34.45-39.43c6.01,1.6,23.77.87,26.41,0,17.22,11.3,25.26-6.12,15.31-8.42,16.45-.76,9.56-17.8,3.44-20.28,9.38-7.66,4.78-12.64-1.15-15.32,0,0-21.62.2-22-2.29,0.38-20.86,7.84-35.98-23.54-27.56,0,0,7.46,33.68,6.12,35.41-7.46.57-11.48,23.92-9.76,35.59,0,0-29.09,36.37-31.19,37.52-1.34-5.75-12.82-5.56-20.48-5.17C1492.44,1349.09,1450.54,1190.05,1443.26,1182.78Z"/>
  <path id="duke_bottom" data-name="duke bottom" class="cls-13" d="M1331,1373c-3.79-6.04-7.28-12.09-10.59-18.36,69.27-23.35,155-4.21,171.08,8.42,4.43,3.49,6.12,13.94,8.8,24.12,14.01,53.22,16.27,85.44,5.71,92.82-5.15,3.6-11.45,3.09-22,1-20.29-4.03-42.38-10.74-51-15-24.4-12.06-44.1-26.08-60-41C1358.44,1411.33,1344.49,1394.49,1331,1373Zm-10-18"/>
  <path id="duke_nose" data-name="duke nose" class="cls-14" d="M1441.24,1311.77c21.43,24,12.37,66.81-30.89,74.62-16.18,2.92-35.81-1.24-48.22-12.34a44.2,44.2,0,0,1,1.99-67.67c8.06-6.45,15.39-8.49,25.18-10.67C1408.06,1293.12,1428.12,1297.09,1441.24,1311.77Z"/>
  <path id="duke_nose_light" data-name="duke nose light" class="cls-13" d="M1400.29,1332.63c-11.67,4.22-24.21-10-10.79-19.21C1405.81,1309.21,1411.85,1328.45,1400.29,1332.63Z"/>
  <path id="window_glass" data-name="window glass" class="cls-15" d="M834.7,1162.11c9.218,23.69,7.328,73.97-22.174,82.83-17.722,5.33-30.45-11.25-35.575-25.99-9.075-26.11-5.844-68.66,22.945-80.73C817.994,1134.92,828.51,1146.18,834.7,1162.11Zm156.206,12.63c22.05,45.27,11.42,131.76-45.765,144.17-33.012,7.17-56.475-17.68-68.81-45.23-20.846-46.55-7.5-124.74,47.76-139.96C956.353,1128.61,977.424,1147.05,990.91,1174.74Zm223.91,16.84c22.85,48.62,22.91,115.21-4.48,162.1-16.96,29.03-44.79,51.87-79.96,50.45-42.06-1.7-70.71-36.82-84.08-73.6-25.04-68.89-7.28-178.5,75.66-196.92C1163.95,1127.8,1197.62,1154.98,1214.82,1191.58Zm158.34-68.77c53.68-4.21,251.55,0,282.07,6.31,47.53,11.69,78.54,57.63,73.29,100.1-51.57,362.1-392.29,308.13-440.52,27.94C1285.71,1236.11,1266.57,1134.29,1373.16,1122.81Z"/>
  <path id="window_glass_lights" data-name="window glass lights" class="cls-16" d="M792.883,1149.47c-14.033,26.67-14.735,55.44-4.911,73.69,6.315,13.33,15.436,0,6.315-14.04C780.955,1188.77,788.673,1176.84,792.883,1149.47Zm108.057,9.13c-35.785,33.68-22.453,109.47-4.912,125.61,18.244,15.44,16.84-.7,8.42-12.63C879.89,1235.09,887.608,1183.86,900.94,1158.6Zm175.42,23.86s-65.26,73.68,2.8,181.75c16.84,25.97,28.07-16.84,14.04-32.28C1027.24,1265.96,1076.36,1182.46,1076.36,1182.46Zm592.9-28.78s95.43,81.41-42.8,262.46c-20.35,22.46-35.78-4.91-12.63-30.18C1720.49,1256.84,1682.6,1171.93,1669.26,1153.68Z"/>
  <path id="bubbles" class="cls-17" d="M1670,814c12.27,5.271,19.12,16,22,25a40.182,40.182,0,0,1-1,28,39.527,39.527,0,0,1-29,23c-16.36,3.05-34.62-4.607-43-21A39.964,39.964,0,0,1,1670,814Zm11-40a13.017,13.017,0,1,0-16-5A13.213,13.213,0,0,0,1681,774Zm-81-53c9.21-1.62,17.72,5.272,19,14A16.307,16.307,0,1,1,1600,721ZM507,1014a39.776,39.776,0,0,1,36,13,40.282,40.282,0,0,1,9,35,39.065,39.065,0,0,1-35,31c-10.149.9-21.587-2.1-30-10-15.284-14.35-15.764-40.58-3-56A37.972,37.972,0,0,1,507,1014Zm-27-37c-7.839,1.979-16.26-5.01-16-13a12.775,12.775,0,0,1,25-3A13.038,13.038,0,0,1,480,977Zm68-23c-9.335.276-17-7.8-17-17s7.665-17.276,17-17c9,0.266,16,8.193,16,17S557,953.734,548,954Zm-76-81c1.455-5.475,8.655-8.84,14-6a9.779,9.779,0,0,1,4,13c-2.769,5.006-9.657,5.913-14,3A9.518,9.518,0,0,1,472,873Z"/>
  <path id="bubbles_light" data-name="bubbles light" class="cls-18" d="M529,1028a6.615,6.615,0,0,1,1,8c-2.241,3.64-8.323,4.19-11,1a6.634,6.634,0,0,1,0-8C521.3,1025.96,526.216,1025.34,529,1028Zm-49-71a2,2,0,1,1-2,2A2.01,2.01,0,0,1,480,957Zm5-87a2.236,2.236,0,1,1-3,1A2.247,2.247,0,0,1,485,870Zm70,58a3.583,3.583,0,0,1,1,4,3.69,3.69,0,0,1-3,2,3.823,3.823,0,0,1-4-2,3.6,3.6,0,0,1,1-4A3.828,3.828,0,0,1,555,928ZM1670,828a7.709,7.709,0,0,1,6,5,8.27,8.27,0,0,1-1,7c-0.72,1.158-2.76,3.823-6,4a7.767,7.767,0,0,1-7-4,8.067,8.067,0,0,1,0-8A7.945,7.945,0,0,1,1670,828Zm12-72a2.736,2.736,0,0,1-1,3,2.652,2.652,0,0,1-3,0,2.761,2.761,0,0,1-1-3,2.7,2.7,0,0,1,2-2A2.769,2.769,0,0,1,1682,756Zm-75-30a4.016,4.016,0,0,1,4,3,3.916,3.916,0,0,1-2,4,4.039,4.039,0,0,1-4,0,3.916,3.916,0,0,1-2-4A4.007,4.007,0,0,1,1607,726Z"/>
</svg>
