<svg xmlns="http://www.w3.org/2000/svg" xmlns:xlink="http://www.w3.org/1999/xlink" width="2000" height="2000" viewBox="52.5 0 2000 2000">
  <defs>
    <style>
      .cls-1, .cls-10, .cls-11, .cls-12, .cls-13, .cls-14, .cls-15, .cls-16, .cls-17, .cls-18, .cls-2, .cls-3, .cls-4, .cls-5, .cls-6, .cls-7, .cls-8, .cls-9 {
        fill-rule: evenodd;
      }

      .cls-1 {
        fill: url(#linear-gradient);
      }

      .cls-2 {
        fill: #2c7491;
      }

      .cls-3 {
        fill: url(#linear-gradient-2);
      }

      .cls-4 {
        fill: url(#linear-gradient-3);
      }

      .cls-5 {
        fill: url(#linear-gradient-4);
      }

      .cls-6 {
        fill: url(#linear-gradient-5);
      }

      .cls-7 {
        fill: #ffe698;
      }

      .cls-8 {
        fill: url(#linear-gradient-6);
      }

      .cls-9 {
        fill: url(#linear-gradient-7);
      }

      .cls-10 {
        fill: #83dcf3;
      }

      .cls-11 {
        fill: #959595;
        opacity: 0.8;
      }

      .cls-13, .cls-18 {
        fill: #fff;
      }

      .cls-14 {
        fill: url(#linear-gradient-8);
      }

      .cls-15 {
        opacity: 0.73;
        fill: url(#linear-gradient-9);
      }

      .cls-16 {
        fill: url(#linear-gradient-10);
      }

      .cls-17 {
        fill: #08a4e4;
        opacity: 0.45;
      }

      .cls-18 {
        opacity: 0.5;
      }
    </style>
    <linearGradient id="linear-gradient" x1="117.969" y1="1949.56" x2="2033.405" y2="34.125" gradientUnits="userSpaceOnUse">
      <stop offset="0" stop-color="#79dff2" stop-opacity="0.6"/>
      <stop offset="0.5" stop-color="#d5edf2" stop-opacity="0.702"/>
      <stop offset="1" stop-color="#79dff2" stop-opacity="0.6"/>
    </linearGradient>
    <linearGradient id="linear-gradient-2" x1="547.934" y1="1414.88" x2="486.754" y2="1067.91" gradientUnits="userSpaceOnUse">
      <stop offset="0" stop-color="#937266"/>
      <stop offset="1" stop-color="#dbbcb0"/>
    </linearGradient>
    <linearGradient id="linear-gradient-3" x1="486.594" y1="1231.326" x2="1755.59" y2="1231.326" gradientUnits="userSpaceOnUse">
      <stop offset="0" stop-color="#ffa92f"/>
      <stop offset="0.004" stop-color="#ffa92f"/>
      <stop offset="1" stop-color="#ffcc2f"/>
    </linearGradient>
    <linearGradient id="linear-gradient-4" x1="1065.561" y1="1376" x2="1065.561" y2="861.062" gradientUnits="userSpaceOnUse">
      <stop offset="0" stop-color="#fddc76"/>
      <stop offset="1" stop-color="#ffe699"/>
    </linearGradient>
    <linearGradient id="linear-gradient-5" x1="486.594" y1="1262.061" x2="1689.81" y2="1262.061" gradientUnits="userSpaceOnUse">
      <stop offset="0" stop-color="#ff782f"/>
      <stop offset="0.001" stop-color="#ff782f"/>
      <stop offset="1" stop-color="#fb9c40"/>
    </linearGradient>
    <linearGradient id="linear-gradient-6" x1="1190.613" y1="771.938" x2="1518.267" y2="333.156" gradientUnits="userSpaceOnUse">
      <stop offset="0" stop-color="#0f738d"/>
      <stop offset="1" stop-color="#05647c"/>
    </linearGradient>
    <linearGradient id="linear-gradient-7" x1="1491.825" y1="587.281" x2="1362.895" y2="363.969" gradientUnits="userSpaceOnUse">
      <stop offset="0" stop-color="#16a6cb"/>
      <stop offset="1" stop-color="#70d6f0"/>
    </linearGradient>
    <linearGradient id="linear-gradient-8" x1="1389.389" y1="1387.31" x2="1410.301" y2="1294.97" gradientUnits="userSpaceOnUse">
      <stop offset="0" stop-color="#c5224c"/>
      <stop offset="1" stop-color="#ff0042"/>
    </linearGradient>
    <linearGradient id="linear-gradient-9" x1="1250.78" y1="1484.16" x2="1250.78" y2="1121.12" gradientUnits="userSpaceOnUse">
      <stop offset="0" stop-color="#377798" stop-opacity="0.631"/>
      <stop offset="1" stop-color="#23b3fd" stop-opacity="0.6"/>
    </linearGradient>
    <linearGradient id="linear-gradient-10" x1="1241.358" y1="1424.47" x2="1241.358" y2="1149.47" gradientUnits="userSpaceOnUse">
      <stop offset="0" stop-color="#b7d1da"/>
      <stop offset="1" stop-color="#b7d1da" stop-opacity="0"/>
    </linearGradient>
  </defs>
  <path id="Gradient_Fill_1" data-name="Gradient Fill 1" class="cls-1" d="M1103.02,34.13l27.36,1.578a878.713,878.713,0,0,1,202.08,32.879c153.38,43.72,285.14,117.4,402.06,226.336,160.44,149.489,262.84,357.98,291.08,574.551L2031.32,920v18.947l2.1,21.053c1.51,128.96-14.43,242.51-59.04,364.21-95.55,260.65-305.52,470.64-566.14,566.2-121.68,44.62-235.22,60.56-364.16,59.06l-23.16-2.02c-85.411-3.72-169.387-20.76-250.49-47.8a952.613,952.613,0,0,1-275.755-145.72c-75.122-57.32-141.992-125.41-196.972-202.35C83.07,1251.22,58.809,857.142,234.3,532.632,353.344,312.509,555.28,149.921,793.585,75.842,840.494,61.26,894.342,49.107,943.04,42.7l61.04-6.721,27.37-1.845h71.57Z"/>
  <path id="Color_Fill_1" data-name="Color Fill 1" class="cls-2" d="M315.3,848.786c-5.507-.445-9.471,1.722-11.809,6-1.714,3.114-2.723,7.182-3.085,13.8-0.439,16.792.6,29.753,2.976,37.9,4.186,13.522,11.866,20.3,22.673,19.617,7.616-.481,13.815-5.357,18.777-14.649,2.082-3.509,5.421-11.408,10.335-24.2,3.161-8.155,6.048-12.377,8.521-12.291,3.992,0.211,5.82,6.385,5.65,18.264a53.789,53.789,0,0,1-1.927,12.072,44.559,44.559,0,0,0-1.726,11.922c0.409,7.219,3.617,10.449,9.565,10.05,6.481-.434,11.1-4.991,14.009-13.647a58.7,58.7,0,0,0,3.233-20.548c0.154-10.551-1.493-19.466-4.89-26.928-4.19-9.373-10.775-14.581-19.933-15.378-7.012-.61-13.666,3.344-19.81,11.563-2.938,3.811-7.123,12.059-12.245,23.747-3.3,8.963-5.829,13.768-7.72,13.8-3.223.048-4.868-7.488-4.657-21.253a55.787,55.787,0,0,1,.744-7.694c3.929-1.164,6.081-5.048,6.426-11.022C330.8,853.494,325.814,849.635,315.3,848.786Zm91.458-83.538a9.43,9.43,0,0,0-6.213-5.177c-0.635-.175-3.524.068-8.674,0.752-5.662.752-8.755,1.122-9.285,1.134q-7.3.18-22.682-3.91-6.545-1.737-11.343-3.29-4.821-1.549-7.912-2.885a12.05,12.05,0,0,0-4.807-2.4c-4.618-1.227-9.839,2.067-15.822,11.1-4.634,6.9-7.568,13.135-8.915,19.666-2.818,15.181-.315,30.2,7.757,42.074,8.235,12.711,19.255,18.9,32.715,20.235,14.385,1.429,25.514-.8,33.442-6.8,8.023-5.752,12.991-15.092,15.181-28.083a33.936,33.936,0,0,0-.043-9.968,132.487,132.487,0,0,0-2.556-14.268c6.039-4.26,9.381-7.538,10.01-9.983A11.414,11.414,0,0,0,406.756,765.248Zm-31.8,19.668a34.926,34.926,0,0,1,2.549,9.8,32.5,32.5,0,0,1-.285,9.9c-0.96,5.359-3.284,9.221-7.024,11.429Q364.637,819.4,354.771,818c-6.881-.969-12.525-4.753-16.809-11.663-4.162-7.012-5.595-13.92-4.075-21.946a13.357,13.357,0,0,1,.854-2.552,20.379,20.379,0,0,1,1.72-2.927l6.72,1.447,5.37,1.155Q357.136,783.362,374.953,784.916Zm49-98.282c-4.517-9.809-12.282-17.409-23.458-22.665-11.965-5.627-22.706-8.039-32.363-6.853-12.686,1.517-21.654,8.345-27.124,21.889a54.656,54.656,0,0,0-3.112,12.419,42.371,42.371,0,0,0,.376,12.987l-0.754-.334a7.825,7.825,0,0,0-7.9,1.386,18.62,18.62,0,0,0-5.784,9.074,13.355,13.355,0,0,0,1.9,12.624,17.984,17.984,0,0,0,10.12,7.1q-1.419-.42,15.972,3.509,12.611,2.882,29.771,7.807,12.171,3.519,31.32,9.266l29.547,8.88a10.583,10.583,0,0,0,13.8-7.178,9.741,9.741,0,0,0-.612-7.847,10.765,10.765,0,0,0-6.323-5.43L418.24,732.394a79.516,79.516,0,0,0,6.555-13.365C429.278,707.605,429.024,696.891,423.948,686.634ZM375.655,681.9q4.4,0.552,14.722,4.854c5.707,2.379,9.643,5.684,11.9,9.71,2.594,4.438,2.88,9.226.768,14.616A51.385,51.385,0,0,1,395.67,724.5l-32.225-11.275a36.55,36.55,0,0,1-3.145-13.075,30.869,30.869,0,0,1,1.885-11.731C364.19,683.309,368.741,681.018,375.655,681.9Zm3.788-68.2c-2.53-1.354-5.554-1.323-9.049.1a12.533,12.533,0,0,0-7.429,6.327c-2.164,4.249-1.725,8.919,1.59,13.408a27.74,27.74,0,0,0,10.59,8.571l10.882,5.224,10.912,5.238,27.636,13.267q8.094,3.885,12.576,4.124,6.505,0.493,9.584-5.609a13.065,13.065,0,0,0,1.584-8.137,8.214,8.214,0,0,0-4.509-6.423c-1.118-.594-2.8-1.546-5.033-2.867q-3.375-1.983-5.409-3.072-8.295-4.417-22.767-12.533c-0.328-1.011-.588-1.754-0.784-2.218-3.9-10.617-5.794-19.62-5.411-27.681a34.185,34.185,0,0,1,7.792,3.559q8.243,4.815,25.206,12.556,16.876,7.856,25.035,12.783a10.746,10.746,0,0,0,8.461,1.323,12.32,12.32,0,0,0,8.684-13.926,10.605,10.605,0,0,0-4.812-7.02q-7.566-4.949-24-13a244.341,244.341,0,0,1-24.061-12.858,83.792,83.792,0,0,1,.552-12.795c0.735-5.722,1.6-9.263,2.528-10.621q2.3-3.366,15.79,2.938,6.224,3.334,20.662,12.083,13.209,7.941,20.705,11.91c5.707,2.668,10.411,1.4,14.163-3.752a12.715,12.715,0,0,0,2.6-8.6,8.975,8.975,0,0,0-4.253-7.356q-27.069-16.391-39.073-22.93c-11.11-6.574-17.825-10.156-20.06-10.88-11.312-2.946-20.842.972-27.632,10.574a45.8,45.8,0,0,0-6.743,14.019,47.078,47.078,0,0,0-1.283,14.34c-7.528.737-13.561,4.846-18.673,13.3-4.478,7.737-4.389,17.423-.637,30.785Q377.905,612.89,379.443,613.7ZM561.409,506.81a9.4,9.4,0,0,0-2.8-7.58c-0.463-.468-3.092-1.709-7.883-3.7q-8.012-3.171-8.715-3.547-6.5-3.384-17.892-14.5-4.846-4.729-8.251-8.455a80.412,80.412,0,0,1-5.415-6.465,11.01,11.01,0,0,0-2.9-4.546c-3.407-3.349-9.685-2.923-18.34.839-7.733,3.808-13.524,7.882-17.059,11.766-10.57,11.92-15.135,24.686-14.911,39.605,1.034,14.072,6.715,25.607,17.417,33.881,11.436,8.843,22.147,12.761,32.036,12,9.8-.631,18.925-5.953,27.563-16a34.288,34.288,0,0,0,5.12-8.527,126.728,126.728,0,0,0,5.033-13.643c7.373-.582,11.939-1.762,13.705-3.593A11.551,11.551,0,0,0,561.409,506.81Zm-37.366,1.069a32.674,32.674,0,0,1-2.5,9.441,33.422,33.422,0,0,1-5.477,8.415c-3.5,4.077-7.322,5.957-11.628,5.826q-6.474-.155-14.105-6.544c-5.325-4.464-8.142-10.625-8.479-18.359a28.388,28.388,0,0,1,7.625-20.665,8.4,8.4,0,0,1,1.637-1.311,19.015,19.015,0,0,1,2.709-1.364l5.082,4.63,4.06,3.7Q509.459,497.563,524.043,507.879Zm87.7-51.319c4.525-9.727,5.436-16.408,2.546-20.056a11.136,11.136,0,0,0-7.557-4.154,10.715,10.715,0,0,0-8.434,2.371c-1.162.964-2.892,4.224-5.339,9.895q-3.7,8.676-7.92,12.378c-5,4.374-10.011,6.991-14.961,7.693a14.049,14.049,0,0,1-13.02-4.622c-3.557-3.845-6.059-10.011-7.275-18.723-0.884-9.245.416-15.4,3.785-18.35,5.27-4.613,10.482-7.223,15.075-7.438,4.609-.169,7.7-0.916,9.512-2.416a10.837,10.837,0,0,0,4.111-8.259,11.486,11.486,0,0,0-2.522-8.233c-3.445-4.32-10.8-4.651-21.354-1.433-8.87,2.936-16.068,6.847-20.669,10.876-10.218,9.09-13.932,21.562-12.333,38.278,2.019,14.27,7,25.161,14.654,32.948Q552.5,489.98,569.69,488.39c10.871-.8,20.841-5.322,30.084-13.518C603.831,471.32,607.776,465.222,611.745,456.56ZM598.307,352.425l-9.7-13.365c-3.941-5.431-7.374-9.088-10.253-11.013-5.132-3.362-10.235-3.159-14.449-.028a15.585,15.585,0,0,0-5.846,8.141,8.822,8.822,0,0,0,1.4,8.493l4.568,5.906,4.568,5.907q1.992,2.575,7.529,10.477l1.533,2.226q23,30.465,33.336,43.205,12.118,16.2,12.843,17.893a19.074,19.074,0,0,0,2.111,3.862,9.4,9.4,0,0,0,7.607,3.637,13.7,13.7,0,0,0,8.77-2.786,11.414,11.414,0,0,0,4.756-11.718q-1.767-6.029-18.812-29.546c-0.512-9.039-.415-15.432.128-19.141,1.1-7.446,4.623-13.207,10.319-17.061,2.125-1.414,4.159-.969,6.232,1.227,0.433,0.5,1.777,2.433,4.009,5.788q1.113,1.673,3.243,5.23,2.116,3.54,3.242,5.231a167.644,167.644,0,0,0,11.6,15,145.09,145.09,0,0,0,12.9,13.737q6.6,5.4,13.761.794a12.655,12.655,0,0,0,5.5-7.037,9.608,9.608,0,0,0-.968-8.407,17.819,17.819,0,0,0-1.868-2.439q-4.682-5.172-10.264-12.507-1.772-2.3-9.7-13.058-5.794-8.479-11.456-16.926c-4.956-6.6-9.815-10.739-14.642-12.395-6.858-1.91-15.035.238-23.507,5.874A46.588,46.588,0,0,0,614.278,349.8a55.019,55.019,0,0,0-6.544,15.615Q603.041,358.947,598.307,352.425Zm85.471-68.371a10.2,10.2,0,0,0-.192-9.313q-2.337-4.233-7.819-5.014a13.714,13.714,0,0,0-9.923,1.683,17.556,17.556,0,0,0-7.685,8.331q-2.1,5.148.377,9.3a10.141,10.141,0,0,0,7.928,4.856,17.269,17.269,0,0,0,10.785-2.335A13.621,13.621,0,0,0,683.778,284.054Zm22.3,40.9q-5.625-10.041-9.371-16.731a11.046,11.046,0,0,0-6.913-5.514c-2.943-.81-6.158-0.241-9.458,1.636a13.793,13.793,0,0,0-6.667,7.621,10.609,10.609,0,0,0,1.25,8.785l9.8,16.485,9.78,16.458,8.05,13.544,8.033,13.516a11.031,11.031,0,0,0,6.982,5.378,11.488,11.488,0,0,0,8.776-1.389,11.345,11.345,0,0,0,5.611-6.866,11.009,11.009,0,0,0-1.134-8.755q-2.394-4.272-7.683-13.718l-7.7-13.747Zm109.7,14.28a10.071,10.071,0,0,0,.11-8.4,157.379,157.379,0,0,0-7.406-14.869,158.582,158.582,0,0,1-7.53-14.924c-0.409-.97-1.089-2.629-2.028-5l-2.286-5.426c-4.528-10.746-9.343-18.238-14.309-22.518-7.5-6.247-16-7.3-26.795-2.451-8.439,3.935-15.419,11.762-19.689,22.954l-0.5-.781c-4.416-7.8-9.865-10.084-17.192-6.392a14.045,14.045,0,0,0-6.925,7.095,10.267,10.267,0,0,0,.736,8.5l3.5,6.631q2.351,4.45,3.534,6.69,3.816,7.219,9.658,20.53t9.636,20.5a71.714,71.714,0,0,0,3.822,6.091c1.8,2.675,3.077,4.7,3.815,6.1a10.447,10.447,0,0,0,6.729,5.484,12.317,12.317,0,0,0,9.12-1.166,12.54,12.54,0,0,0,6.291-6.667,10.191,10.191,0,0,0-.42-8.607l-3.133-6.3-3.147-6.333a65.208,65.208,0,0,1-2.9-6.789c-1.045-2.878-1.937-5.172-2.675-6.862-1.8-9.363-1.926-17.754-.261-25.2,1.667-7.4,4.459-12.007,8.7-13.983,2.068-.962,4.05.624,5.926,4.731l1.571,3.441c0.649,1.421,1.049,2.3,1.2,2.633q0.878,1.919,3.02,6.613c1.421,3.111,2.425,5.311,3.006,6.582q3.279,7.182,7.689,15.044,4.161,7.432,8.262,14.784c3.422,5.674,8.226,7.127,14.491,4.393A11.9,11.9,0,0,0,815.772,339.232ZM887.3,308.078c7.5-6.909,10.346-13.64,8.389-20.29-1.727-5.87-5.465-7.958-11.242-6.2-2.747.852-5.99,3.3-9.57,7.23-4.1,4.43-9.791,7.9-16.918,10.388a81.2,81.2,0,0,1-12.877,3.474,34.049,34.049,0,0,1-10.253.488l22.665-22.1c8.048-7.33,13.13-12.466,15.455-15.616,5.515-6.953,7.431-13.506,5.576-19.663-2.63-8.733-9.174-13.765-19.2-15.14-7.294-1.08-16.506.26-26.152,3.622-14.722,5.311-23.669,14.571-28.24,28.152-3.454,12.086-2.357,24.709,3.067,37.96q7.377,18.025,24.3,22.713c10.149,3,21.3,2.243,33.587-2.134A59.173,59.173,0,0,0,887.3,308.078ZM857.3,253.88c-3.685,4.344-8.636,9.434-14.544,15.171-5.276,4.777-10.52,9.635-15.382,14.43-0.453-7.329.428-13.29,2.833-17.952a20.4,20.4,0,0,1,11.484-9.7C847.437,253.821,852.727,253.153,857.3,253.88ZM948.969,297.8c2.1-2.655,2.879-5.292,2.3-7.942a9.192,9.192,0,0,0-5.487-6.515,15.39,15.39,0,0,0-10.335-.706,15.134,15.134,0,0,0-8.77,5.689q-3.107,4.2-2.043,8.171,1.024,3.839,5.788,5.878a15.338,15.338,0,0,0,10.065.7A14.82,14.82,0,0,0,948.969,297.8Zm44.953-120.06a11.027,11.027,0,0,0,2.745-8.753,10.88,10.88,0,0,0-5.283-7.464,12.721,12.721,0,0,0-9.265-1.979,16.221,16.221,0,0,0-8.983,4.838c-3.046,2.754-4.273,5.751-3.718,8.926s2.679,5.582,6.352,7.276a15.816,15.816,0,0,0,9.93,1.84A12.765,12.765,0,0,0,993.922,177.744Zm6.748,46.09q-1.78-11.37-2.966-18.947a11.016,11.016,0,0,0-4.516-7.583,11.3,11.3,0,0,0-8.687-1.9,15.544,15.544,0,0,0-8.915,4.673,9.956,9.956,0,0,0-2.612,8.8q1.372,7.549,3.431,18.868l3.425,18.836q0.877,4.83,2.819,15.5,1.938,10.655,2.813,15.469a11.051,11.051,0,0,0,4.657,7.471,11.4,11.4,0,0,0,8.7,1.894,11.282,11.282,0,0,0,7.686-4.467,11,11,0,0,0,1.99-8.6q-0.765-4.838-2.43-15.534-1.68-10.725-2.44-15.567Q1002.445,235.218,1000.67,223.834Zm94.84,38.294c6.83-9.378,10.09-20.584,9.91-33.659-0.17-11.989-3.23-22-9.78-30.021-7.91-8.785-17.44-12.885-29.66-12.347-17.83,1.328-29.71,8.3-36.89,20.565a46.156,46.156,0,0,0-7.65,34.362c2.09,12.932,7.79,22.754,16.75,29.721a37.338,37.338,0,0,0,27.12,8.261C1078.06,278.288,1088.1,272.7,1095.51,262.128Zm-14.29-27.208q0.015,9.617-5.56,15.485a18.985,18.985,0,0,1-12.32,5.529,15.839,15.839,0,0,1-10.83-3.289c-4.06-3.1-6.36-7.89-7.01-14.37a32.471,32.471,0,0,1,3.08-18.461c3.93-6.527,9.65-9.989,16.79-10.461C1076.32,208.874,1081.18,217.429,1081.22,234.92Z"/>
  <path id="propeller" class="cls-3" d="M522.909,1281.24c-70.7,154.4-178.686,166.59-135.969,79.61,27.437-57.31,78.33-96.47,82.63-98.46,48.107-17.58,9.913-31.25,2.965-34.99-96.053-31-162.813-171.77-74.658-129.01,55,26.2,83.377,44.97,106.436,83.6,24.716,45.98,26.541,9.77,35.689-4.31,5.359-21.03,54.224-78.38,77.707-91.55,92.9-49.86,50.766,18.3,50.766,18.3C652,1128,596,1206,522.909,1281.24Z"/>
  <path id="body" class="cls-4" d="M1517.7,898.947c206.82,95.263,238.92,326.313,237.87,385.263,4.21,349.47-377.85,417.9-569.4,409.47-376.8-29.47-568.353-135.79-643.08-314.73-82.1-75.79-50.52-117.9-50.52-117.9s32.914,2.49,40-2.1c-4.019-16.27-2.679-50.53,2.488-62.97,1.913-6.89,5.741-10.91,13.395-14.74,33.489-13.01,95.682-31.06,173.567-40.19,13.288-5,35-22.23,37.89-27.37C868.663,964.21,1040.06,922.3,1039.87,922.105c2.3-25.837,31.77-47.464,31.57-47.081-0.19-19.139,45.36-110.239,159.98-106.6,56.14,2.1,203.55,17.574,206.29,18.947,0.46,2.38,6.32,52.632,6.32,52.632l10.52,21.052S1529.81,861.579,1517.7,898.947Z"/>
  <path id="top_lights" data-name="top lights" class="cls-5" d="M1351.41,938.947c224.53-13.333,263.12,74.383,267.33,101.053,2.11,33.68-43.5,34.39-59.64,12.63C1521.91,991.579,1369.65,951.579,1351.41,938.947Zm166.29-40c-22.36-14.737-150.5-3.158-227.34-20.263,66.31-6.053,164.19-17.632,164.19-17.632S1529.81,861.579,1517.7,898.947ZM532.182,1259.11c-1.854,1.61-11.613,2.76-19.911,2.67C525.987,1328.29,722,1334,756,1326c96-18,128,50,128,50s-26-80-70-80c-26,2-288.516,1.22-281.435-37.05C532.444,1259,532.317,1259.06,532.182,1259.11Z"/>
  <path id="bottom_lights" data-name="bottom lights" class="cls-6" d="M1039.87,922.105c3.11-26.636,31.84-47.105,31.77-47.081,34.01-21.077,114-41.866,141.54-44.849,135.07-2.807,230.85,10.088,230.85,10.088s10.66,20.921,10.52,20.921-380.47,40.395-380.47,40.395S1042.62,903.524,1039.87,922.105ZM912,1430c11.577,13.68,22.473,34.68,18,46-94.725,8.42-278.5-28.63-386.91-97.05-82.1-75.79-50.52-117.9-50.52-117.9C526.776,1408.42,798.33,1422.63,912,1430Zm777.8,74.56c-117.01,159.68-362.23,195.34-503.63,189.12-376.8-29.47-568.353-135.79-643.08-314.73C867.26,1584.21,1272.47,1709.47,1689.8,1504.56Z"/>
  <path id="roof_light" data-name="roof light" class="cls-7" d="M1213.01,830.526c8.15-27.368,7.36-23.684,18.41-62.1,56.14,2.1,203.55,17.574,206.29,18.947,0.46,2.38,6.32,52.632,6.32,52.632S1295.1,825.263,1213.01,830.526Z"/>
  <path id="rescope" class="cls-8" d="M1192.83,771.93C1239.67,700.351,1080,520,1310,388c62-36,142-64,170-52,84,40,71.26,364.268-170,260-76-40-48.12,138.005-40.69,175.93C1263.53,767.193,1203.62,766.93,1192.83,771.93Z"/>
  <path id="recope_glass" data-name="recope glass" class="cls-9" d="M1464,366c-116-28-144,242-52,220C1514,572,1516,380,1464,366Z"/>
  <path id="rescope_glass_light" data-name="rescope glass light" class="cls-10" d="M1454.98,382.316C1498.66,435.474,1485.89,498.105,1468,526c-26.84,34.737-33.58,25.474-22,6C1464.42,496.737,1495.5,485.474,1454.98,382.316Z"/>
  <path id="window_background" data-name="window background" class="cls-11" d="M834.7,1162.11c9.218,23.69,7.328,73.97-22.174,82.83-17.722,5.33-30.45-11.25-35.575-25.99-9.075-26.11-5.844-68.66,22.945-80.73C817.994,1134.92,828.51,1146.18,834.7,1162.11Zm156.206,12.63c22.05,45.27,11.42,131.76-45.765,144.17-33.012,7.17-56.475-17.68-68.81-45.23-20.846-46.55-7.5-124.74,47.76-139.96C956.353,1128.61,977.424,1147.05,990.91,1174.74Zm223.91,16.84c22.85,48.62,22.91,115.21-4.48,162.1-16.96,29.03-44.79,51.87-79.96,50.45-42.06-1.7-70.71-36.82-84.08-73.6-25.04-68.89-7.28-178.5,75.66-196.92C1163.95,1127.8,1197.62,1154.98,1214.82,1191.58Zm158.34-68.77c53.68-4.21,251.55,0,282.07,6.31,47.53,11.69,78.54,57.63,73.29,100.1-51.57,362.1-392.29,308.13-440.52,27.94C1285.71,1236.11,1266.57,1134.29,1373.16,1122.81Z"/>
  <path id="duke_top" data-name="duke top" class="cls-12" d="M1443.26,1182.78c-81.52,43.25-122.09,155.78-122.85,171.86,69.27-23.35,155-4.21,171.08,8.42,5.74,4.21,8.04,20.29,8.8,24.12,8.42,0,13.01-20.29,13.01-20.29s32.32-38.56,34.45-39.43c6.01,1.6,23.77.87,26.41,0,17.22,11.3,25.26-6.12,15.31-8.42,16.45-.76,9.56-17.8,3.44-20.28,9.38-7.66,4.78-12.64-1.15-15.32,0,0-21.62.2-22-2.29,0.38-20.86,7.84-35.98-23.54-27.56,0,0,7.46,33.68,6.12,35.41-7.46.57-11.48,23.92-9.76,35.59,0,0-29.09,36.37-31.19,37.52-1.34-5.75-12.82-5.56-20.48-5.17C1492.44,1349.09,1450.54,1190.05,1443.26,1182.78Z"/>
  <path id="duke_bottom" data-name="duke bottom" class="cls-13" d="M1331,1373c-3.79-6.04-7.28-12.09-10.59-18.36,69.27-23.35,155-4.21,171.08,8.42,4.43,3.49,6.12,13.94,8.8,24.12,14.01,53.22,16.27,85.44,5.71,92.82-5.15,3.6-11.45,3.09-22,1-20.29-4.03-42.38-10.74-51-15-24.4-12.06-44.1-26.08-60-41C1358.44,1411.33,1344.49,1394.49,1331,1373Zm-10-18"/>
  <path id="duke_nose" data-name="duke nose" class="cls-14" d="M1441.24,1311.77c21.43,24,12.37,66.81-30.89,74.62-16.18,2.92-35.81-1.24-48.22-12.34a44.2,44.2,0,0,1,1.99-67.67c8.06-6.45,15.39-8.49,25.18-10.67C1408.06,1293.12,1428.12,1297.09,1441.24,1311.77Z"/>
  <path id="duke_nose_light" data-name="duke nose light" class="cls-13" d="M1400.29,1332.63c-11.67,4.22-24.21-10-10.79-19.21C1405.81,1309.21,1411.85,1328.45,1400.29,1332.63Z"/>
  <path id="window_glass" data-name="window glass" class="cls-15" d="M834.7,1162.11c9.218,23.69,7.328,73.97-22.174,82.83-17.722,5.33-30.45-11.25-35.575-25.99-9.075-26.11-5.844-68.66,22.945-80.73C817.994,1134.92,828.51,1146.18,834.7,1162.11Zm156.206,12.63c22.05,45.27,11.42,131.76-45.765,144.17-33.012,7.17-56.475-17.68-68.81-45.23-20.846-46.55-7.5-124.74,47.76-139.96C956.353,1128.61,977.424,1147.05,990.91,1174.74Zm223.91,16.84c22.85,48.62,22.91,115.21-4.48,162.1-16.96,29.03-44.79,51.87-79.96,50.45-42.06-1.7-70.71-36.82-84.08-73.6-25.04-68.89-7.28-178.5,75.66-196.92C1163.95,1127.8,1197.62,1154.98,1214.82,1191.58Zm158.34-68.77c53.68-4.21,251.55,0,282.07,6.31,47.53,11.69,78.54,57.63,73.29,100.1-51.57,362.1-392.29,308.13-440.52,27.94C1285.71,1236.11,1266.57,1134.29,1373.16,1122.81Z"/>
  <path id="window_glass_lights" data-name="window glass lights" class="cls-16" d="M792.883,1149.47c-14.033,26.67-14.735,55.44-4.911,73.69,6.315,13.33,15.436,0,6.315-14.04C780.955,1188.77,788.673,1176.84,792.883,1149.47Zm108.057,9.13c-35.785,33.68-22.453,109.47-4.912,125.61,18.244,15.44,16.84-.7,8.42-12.63C879.89,1235.09,887.608,1183.86,900.94,1158.6Zm175.42,23.86s-65.26,73.68,2.8,181.75c16.84,25.97,28.07-16.84,14.04-32.28C1027.24,1265.96,1076.36,1182.46,1076.36,1182.46Zm592.9-28.78s95.43,81.41-42.8,262.46c-20.35,22.46-35.78-4.91-12.63-30.18C1720.49,1256.84,1682.6,1171.93,1669.26,1153.68Z"/>
  <path id="bubbles" class="cls-17" d="M1670,814c12.27,5.271,19.12,16,22,25a40.182,40.182,0,0,1-1,28,39.527,39.527,0,0,1-29,23c-16.36,3.05-34.62-4.607-43-21A39.964,39.964,0,0,1,1670,814Zm11-40a13.017,13.017,0,1,0-16-5A13.213,13.213,0,0,0,1681,774Zm-81-53c9.21-1.62,17.72,5.272,19,14A16.307,16.307,0,1,1,1600,721ZM507,1014a39.776,39.776,0,0,1,36,13,40.282,40.282,0,0,1,9,35,39.065,39.065,0,0,1-35,31c-10.149.9-21.587-2.1-30-10-15.284-14.35-15.764-40.58-3-56A37.972,37.972,0,0,1,507,1014Zm-27-37c-7.839,1.979-16.26-5.01-16-13a12.775,12.775,0,0,1,25-3A13.038,13.038,0,0,1,480,977Zm68-23c-9.335.276-17-7.8-17-17s7.665-17.276,17-17c9,0.266,16,8.193,16,17S557,953.734,548,954Zm-76-81c1.455-5.475,8.655-8.84,14-6a9.779,9.779,0,0,1,4,13c-2.769,5.006-9.657,5.913-14,3A9.518,9.518,0,0,1,472,873Z"/>
  <path id="bubbles_light" data-name="bubbles light" class="cls-18" d="M529,1028a6.615,6.615,0,0,1,1,8c-2.241,3.64-8.323,4.19-11,1a6.634,6.634,0,0,1,0-8C521.3,1025.96,526.216,1025.34,529,1028Zm-49-71a2,2,0,1,1-2,2A2.01,2.01,0,0,1,480,957Zm5-87a2.236,2.236,0,1,1-3,1A2.247,2.247,0,0,1,485,870Zm70,58a3.583,3.583,0,0,1,1,4,3.69,3.69,0,0,1-3,2,3.823,3.823,0,0,1-4-2,3.6,3.6,0,0,1,1-4A3.828,3.828,0,0,1,555,928ZM1670,828a7.709,7.709,0,0,1,6,5,8.27,8.27,0,0,1-1,7c-0.72,1.158-2.76,3.823-6,4a7.767,7.767,0,0,1-7-4,8.067,8.067,0,0,1,0-8A7.945,7.945,0,0,1,1670,828Zm12-72a2.736,2.736,0,0,1-1,3,2.652,2.652,0,0,1-3,0,2.761,2.761,0,0,1-1-3,2.7,2.7,0,0,1,2-2A2.769,2.769,0,0,1,1682,756Zm-75-30a4.016,4.016,0,0,1,4,3,3.916,3.916,0,0,1-2,4,4.039,4.039,0,0,1-4,0,3.916,3.916,0,0,1-2-4A4.007,4.007,0,0,1,1607,726Z"/>
</svg>
